<svg width="80" height="80" xmlns="http://www.w3.org/2000/svg" xmlns:svg="http://www.w3.org/2000/svg">
 <g id="logo-out" class="out" display="inline">
   <path fill="deeppink" fill-rule="evenodd" clip-rule="evenodd" d="m76.32425,54.09035c0,-4.31705 0.95935,-7.67476 0.95935,-12.1517c-3.35771,0.15989 -6.87531,0.31978 -10.39291,0.31978c-0.47967,3.83738 0.15989,8.63411 -0.31978,12.47149c-1.11924,-0.15989 -2.55826,0.15989 -3.19782,-0.15989c0,-7.67476 -0.31978,-16.78854 0.31978,-24.30341c0.95935,0.15989 1.91869,-0.47967 2.55826,-0.31978c2.23847,0.63957 0.15989,6.39563 0.47967,8.47422c2.87803,0.79945 7.19509,0.47967 10.71269,0.79945c0.15989,-2.39836 0.31978,-6.55551 0.15989,-8.95389c0.63956,-0.15989 1.59891,-0.15989 2.39836,-0.15989l0,-30.05947l-0.15989,0c-2.55825,9.59345 -5.27639,19.027 -8.15443,28.62045c-2.55826,0 -3.83739,0 -6.23574,0c-1.59891,-9.91323 -3.83738,-19.18689 -5.91595,-28.62045l-2.87804,0c1.59891,9.75334 3.83739,19.027 5.91596,28.30067c-0.79946,0.15989 -3.35771,0.47968 -3.83739,-0.15989c-1.5989,-2.23847 -1.43901,-6.07584 -2.23847,-9.11378c-2.55825,0.15989 -4.63682,-0.31978 -7.19509,-0.15989c-1.27912,2.55826 -1.7588,5.59617 -2.71814,8.31433c-1.11924,0.15989 -2.87804,0.79945 -4.47695,0.31978c2.55826,-9.27367 5.1165,-18.54733 7.83465,-27.66111l-15.82918,0c3.19782,0 6.55551,0.15989 9.75334,0c0,5.11649 -0.31978,9.91323 -0.47967,14.86984l-3.35771,0.47967c-0.95935,0 -1.91869,0.15989 -2.87804,0.15989l-7.0352,0.63956c-0.31978,0 -0.79945,0 -1.27912,0.1599c-0.31978,3.83738 0.95934,7.67476 1.11923,11.51214c-1.11923,0 -1.7588,0.63956 -3.19781,0.31978c-1.27913,-9.43356 -2.07859,-18.70722 -3.5176,-27.98089c0.31978,0 0.63956,0 0.95934,0l-7.67476,0c-3.19782,4.47694 -6.55552,8.79399 -10.07313,12.95116c3.5176,5.43628 8.47422,9.27367 12.79127,14.07039c-1.91869,0.15989 -3.67749,0.79945 -5.11649,0.31978c-1.59891,-0.47968 -3.67749,-3.99728 -4.79672,-5.27639c-1.7588,-2.07858 -3.35771,-3.99727 -4.79671,-5.27639c-0.63957,3.67749 0.95934,7.51487 0.63956,11.03247c-1.27913,0.15989 -3.03793,0.15989 -3.83738,0c-0.31978,-9.43356 -0.63957,-18.70722 -1.27913,-27.821l0,0l0,52.60408c2.87804,-7.51487 5.59617,-15.34952 8.31433,-23.02428c2.23847,0 4.31705,0 6.55551,0c1.7588,8.47422 4.47695,17.10832 6.55552,24.78308c-1.11924,0.31978 -3.67749,0.31978 -4.47695,-0.15989c-2.07858,-6.71541 -3.5176,-13.9105 -5.43628,-20.62593c-2.39836,6.71541 -4.31705,13.59072 -7.19509,19.82646c-1.27912,0.15989 -3.03792,0.47968 -4.31705,0.15989l0,3.67749c5.27639,-0.15989 12.15171,-0.15989 17.74788,0c-0.15989,7.51488 -0.15989,15.6693 -0.31979,22.54461l3.35771,0c-0.15989,-7.51487 -0.15989,-16.46875 0,-23.34406c3.5176,-0.47967 7.83466,-0.47967 11.03247,0.15989c2.07859,1.43902 3.03793,8.47422 0.63957,10.39291c0.47967,0.79945 1.7588,1.11923 2.07858,2.07858c0.95935,2.23847 0.47967,9.75334 -1.11924,10.87258c0,0 0,0 -0.15989,0l2.23848,0c2.23847,-8.15443 4.9566,-15.82919 7.03519,-23.98362c1.59891,-0.31978 3.99728,-0.63956 5.59617,-0.15989c2.07859,8.15443 4.15717,16.14897 6.23574,24.14351l25.58253,0l0,-26.0622c-0.79946,0.31978 -2.55826,0.47967 -3.67749,0.15989l0.00002,-0.00003l-0.00002,0zm-63.63655,0.47968c-0.47967,-2.07858 -1.11924,-4.31706 -1.59891,-6.39563c-0.79945,2.07858 -1.43902,4.31706 -2.23847,6.39563l-2.23847,0c0.95934,-2.71815 1.91869,-5.43628 3.03792,-8.31433l2.87804,0c0.63956,2.71815 1.43902,5.59617 2.07858,8.31433l-1.91869,0zm8.95389,-35.33588c-0.47967,-3.19782 -0.63956,-7.35498 -1.43902,-9.91323c-1.11924,3.35771 -1.59891,7.19509 -2.71814,10.39291c-1.11924,0.15989 -2.55826,0.47967 -3.6775,0.47967c-0.79945,-3.19782 -1.11923,-7.51487 -1.5989,-10.87258c-0.1599,-0.63957 -0.31979,-1.27913 0,-1.7588c0.63956,0 1.27912,0 1.91869,0c0.79945,3.19782 0.47967,7.35498 1.7588,10.39291c1.27912,-3.19782 1.91869,-6.71541 2.71814,-10.23302c1.11924,-0.31978 2.23847,-0.15989 3.35771,-0.31978c0.79946,3.67749 1.11924,7.83465 1.7588,11.67203c-0.47967,0 -1.43902,0.15989 -2.07858,0.15989zm17.2682,35.33588c-5.27638,-0.15989 -11.19236,-0.47968 -16.14896,-0.31978c-0.31979,-7.99455 0,-16.62865 0.15989,-24.78308c5.11649,0.15989 10.71269,0 15.66929,0.47967c0.31978,0.79946 0,2.23847 -0.15989,3.03793c-4.15716,0.31978 -8.31432,-0.63956 -11.83192,0c-0.79946,2.07858 -0.47968,5.43628 -0.47968,8.15443c3.35771,0.79946 7.99455,0.31979 11.51215,0.95935c-0.15989,1.11924 0.31978,1.7588 0.31978,2.71814c-3.5176,0.47968 -7.35498,0 -10.87258,-0.15989c-0.79946,1.59891 -0.47967,4.15717 -0.47967,6.23574c3.35771,0.79945 9.11378,0.31978 12.47149,0.31978c0.47967,1.11924 0.15989,2.55825 -0.1599,3.35771l0,-0.00001l0,0.00001zm7.67477,-24.4633c1.43902,0.31978 3.19782,0.31978 4.9566,0.31978c0,0.1599 0,0.1599 0,0.31979c-0.47967,0 -0.95934,0.15989 -1.11923,0.31978c0.31978,0 0.79945,0 1.11923,0c0,0.47967 0,0.79945 0,1.27913c-1.59891,0 -3.35771,0.15989 -5.11649,0.15989c0.15989,-0.79946 0.15989,-1.59891 0.15989,-2.39837zm14.07038,24.4633c-0.95934,0.15989 -2.71814,0 -3.67749,-0.15989c-0.15989,-6.71541 0.31978,-13.75061 -0.15989,-20.14625c-3.35771,6.39563 -6.39562,13.11106 -9.59345,19.66657c-1.91869,-0.15989 -4.15716,0.15989 -5.59617,0c-0.47967,-7.67476 -0.31978,-15.66929 -0.31978,-23.82373c1.11923,-0.31978 2.71814,-0.15989 3.5176,0.15989c0.15989,5.43628 0,12.47149 0.79945,18.06766c3.35771,-5.91595 6.39563,-12.1517 9.59345,-18.38744c1.7588,0 3.83739,-0.31978 5.27639,-0.15989c0.15989,0 0.31978,0 0.31978,0c-0.31978,7.83465 0,17.10832 -0.15989,24.78308z" stroke="null"/>
   <path fill="deeppink" fill-rule="evenodd" clip-rule="evenodd" d="m23.40775,59.23817c-0.15989,2.23847 0.15989,4.31706 0.15989,6.55552c2.07858,0 5.1165,-0.31978 7.35498,-0.63957c-0.15989,-2.07858 -0.15989,-3.67749 -0.47967,-5.43628c-2.07858,-0.47967 -4.79672,-0.31978 -7.0352,-0.47967z" stroke="null"/>
   <path fill="deeppink" fill-rule="evenodd" clip-rule="evenodd" d="m31.24239,68.83162c-2.23847,0 -4.63682,0 -6.87529,0c-0.79946,2.23848 -0.47968,6.55552 -0.47968,9.11378c2.23848,0.31979 5.43628,0.1599 7.51487,-0.15989c0.31979,-2.87803 0,-6.23573 -0.15989,-8.95389l-0.00001,0z" stroke="null"/>
   <path fill="deeppink" fill-rule="evenodd" clip-rule="evenodd" d="m50.26941,79.96328c-0.63957,-2.23847 -1.11924,-4.79672 -1.43902,-7.35498c-1.91869,-0.15989 -4.63682,0.31978 -7.19509,0.15989c-0.95934,2.07858 -0.95934,4.95661 -1.91869,7.19509l10.5528,0z" stroke="null"/>
   <path fill="deeppink" fill-rule="evenodd" clip-rule="evenodd" d="m12.0555,51.56341c0,0.31978 0.15989,0.63956 0.31978,0.95934c0.31978,-0.15989 0,-0.95934 -0.31978,-0.95934z" stroke="null"/>
   <path fill="deeppink" fill-rule="evenodd" clip-rule="evenodd" d="m12.53517,51.56341c0.15989,-0.15989 0,-0.63956 -0.31978,-0.63956c0,0.31978 0.15989,0.47967 0.31978,0.63956z" stroke="null"/>
   <path fill="deeppink" fill-rule="evenodd" clip-rule="evenodd" d="m42.27486,69.79097c1.59891,0.15989 4.15717,0.47967 5.43628,0.47967c-0.47967,-3.5176 -1.11923,-7.0352 -2.07858,-10.23301c-0.47967,0 -0.79945,0 -1.27913,0c-0.79945,3.03792 -1.43901,6.39562 -2.07858,9.75334l0.00001,0z" stroke="null"/>
   <path fill="deeppink" fill-rule="evenodd" clip-rule="evenodd" d="m53.78701,2.47694c-0.15989,0 -0.47967,0 -0.63957,0c-1.5989,4.31705 -2.71814,8.95389 -3.83738,13.43083c2.55826,0.15989 3.99728,-0.47967 6.39563,-0.31978c-0.79946,-4.31705 -1.43902,-8.794 -1.91869,-13.11105l0.00001,0z" stroke="null"/>
   <path fill="deeppink" fill-rule="evenodd" clip-rule="evenodd" d="m40.03639,3.43628c-3.03793,-0.31978 -7.67476,-0.15989 -11.51214,-0.15989c-0.31978,0 -0.31978,0.47968 -0.63957,0.47968c0.47968,2.71814 0.47968,6.07584 0.95935,8.79399c3.67749,-0.63956 7.99454,-0.63956 11.51214,-1.43901c-0.15989,-2.55826 0.15989,-5.59617 -0.31978,-7.67477z" stroke="null"/>
   <path fill="deeppink" fill-rule="evenodd" clip-rule="evenodd" d="m66.57827,12.07038c0.63956,4.31706 1.27913,8.794 1.91869,13.11106c0.15989,0 0.47967,0 0.63956,0c1.59891,-4.31706 2.71815,-8.794 3.83738,-13.43084c-2.55825,-0.15989 -3.99727,0.47967 -6.39562,0.31978l-0.00001,0z" stroke="null"/>
   <path fill="deeppink" fill-rule="evenodd" clip-rule="evenodd" d="m2.46204,77.62561c4.15717,0 7.83466,-0.31978 11.35226,-0.79945c0.79945,-4.63683 -0.15989,-10.07313 0.15989,-15.34952c-3.35771,-0.47967 -8.47422,-0.31978 -11.67204,-0.31978c0.31979,5.59617 -0.47967,11.19236 0.15989,16.46875z" stroke="null"/>
   <path fill="deeppink" fill-rule="evenodd" clip-rule="evenodd" d="m3.90106,0.01787c0.15989,3.35771 0,7.0352 0.63957,9.91323c3.03792,-2.87803 4.79671,-7.0352 7.83465,-9.91323l-8.47422,0z" stroke="null"/>
   <path fill="deeppink" fill-rule="evenodd" clip-rule="evenodd" d="m63.86013,0.01787c1.11924,2.23847 1.11924,5.43628 1.7588,8.15443c2.55826,-0.15989 4.63683,0.31978 7.19509,0.15989c1.27913,-2.39836 1.7588,-5.43628 2.71815,-8.31432l-11.67204,0z" stroke="null"/>
 </g>
 <g id="logo-in" class="in" display="inline">
  <path fill="white" d="m9.63388,46.26742l2.87803,0c0.63957,2.71815 1.43902,5.59617 2.07858,8.31433l-1.91869,0c-0.47967,-2.07858 -1.11923,-4.31706 -1.59891,-6.39563c-0.79945,2.07858 -1.43901,4.31706 -2.23847,6.39563l-2.23847,0c0.95934,-2.71815 1.91869,-5.43628 3.03793,-8.31433zm12.31159,-38.85347c-1.11923,0.15989 -2.23847,0 -3.35771,0.31978c-0.79945,3.5176 -1.43901,7.0352 -2.71814,10.23302c-1.27913,-3.03793 -0.95935,-7.19509 -1.7588,-10.39291c-0.63956,0 -1.27913,0 -1.91869,0c-0.31978,0.47967 -0.15989,1.11923 0,1.7588c0.47967,3.35771 0.79945,7.67476 1.59891,10.87258c1.11923,0 2.55825,-0.31978 3.67749,-0.47967c1.11923,-3.19782 1.59891,-7.0352 2.71814,-10.39291c0.79946,2.55825 0.95935,6.7154 1.43902,9.91323c0.63957,0 1.59891,-0.15989 2.07858,-0.15989c-0.63956,-3.83738 -0.95934,-7.99454 -1.7588,-11.67203zm16.94843,47.16779c0.31978,-0.79946 0.63956,-2.23848 0.15989,-3.35771c-3.35771,0 -9.11378,0.47967 -12.47149,-0.31978c0,-2.07859 -0.31978,-4.63683 0.47967,-6.23574c3.5176,0.15989 7.35498,0.63957 10.87258,0.15989c0,-0.95934 -0.47967,-1.59891 -0.31978,-2.71814c-3.5176,-0.63957 -8.15444,-0.15989 -11.51214,-0.95935c0,-2.71814 -0.31979,-6.07584 0.47967,-8.15443c3.5176,-0.63957 7.67476,0.31978 11.83192,0c0.1599,-0.79946 0.47968,-2.23848 0.1599,-3.03793c-4.95661,-0.47967 -10.5528,-0.31978 -15.6693,-0.47967c-0.15989,8.15443 -0.47967,16.78853 -0.15989,24.78307c4.9566,-0.15989 10.87258,0.15989 16.14897,0.31979l0,0.00001l0,-0.00001zm12.63138,-24.14352c-1.7588,0 -3.5176,0 -4.95661,-0.31978c0,0.79946 0,1.59891 -0.15989,2.39837c1.7588,0 3.5176,-0.15989 5.1165,-0.15989c0,-0.47968 0,-0.79946 0,-1.27913c-0.31978,0 -0.79946,0 -1.11924,0c0.15989,-0.15989 0.63956,-0.31978 1.11924,-0.31978c0,-0.15989 0,-0.15989 0,-0.31979zm8.95389,-0.63956c-1.43902,-0.15989 -3.5176,0.15989 -5.27639,0.15989c-3.19782,6.23574 -6.23574,12.47149 -9.59345,18.38744c-0.79946,-5.59617 -0.63957,-12.63138 -0.79946,-18.06766c-0.79945,-0.31978 -2.39836,-0.47967 -3.5176,-0.15989c0,8.15444 -0.15989,16.14897 0.31978,23.82373c1.43902,0.15989 3.67749,-0.15989 5.59617,0c3.19782,-6.55551 6.23574,-13.27094 9.59346,-19.66657c0.47967,6.39563 0,13.43084 0.15989,20.14625c0.95934,0.15989 2.71814,0.31978 3.67749,0.15989c0.15989,-7.67476 -0.15989,-16.94843 0.15989,-24.78308c0,0 -0.15989,0 -0.31978,0zm-25.90232,39.33315c0.95935,2.23847 0.47968,9.59345 -1.11923,10.87258l-33.41718,0l0,-22.7045c5.27639,-0.15989 12.15171,-0.15989 17.74788,0c-0.15989,7.51488 -0.15989,15.6693 -0.31978,22.54461l3.35771,0c-0.15989,-7.51487 -0.15989,-16.46875 0,-23.34406c3.5176,-0.47967 7.83465,-0.47967 11.03247,0.15989c2.07858,1.43902 3.03793,8.47422 0.63956,10.39291c0.47968,0.79945 1.7588,1.11923 2.07859,2.07858l-0.00002,-0.00001zm-20.62592,-7.67476c-3.35771,-0.47968 -8.47422,-0.31979 -11.67204,-0.31979c0.31979,5.59617 -0.47967,11.19237 0.1599,16.46876c4.15716,0 7.83465,-0.31979 11.35225,-0.79946c0.79945,-4.63682 -0.15989,-10.07313 0.15989,-15.34951zm9.59345,4.31705c2.07858,0 5.1165,-0.31978 7.35498,-0.63956c-0.15989,-2.07858 -0.15989,-3.67749 -0.47967,-5.43628c-2.07858,-0.47967 -4.79672,-0.31978 -7.0352,-0.47967c-0.15989,2.23847 0.15989,4.31705 0.15989,6.55551zm7.67476,3.03793c-2.23847,0 -4.63682,0 -6.87529,0c-0.79946,2.23847 -0.47968,6.55551 -0.47968,9.11378c2.23848,0.31978 5.43628,0.15989 7.51488,-0.15989c0.31978,-2.87804 0,-6.23574 -0.1599,-8.95389l-0.00001,0zm-29.89958,-40.93205c-0.31978,-9.27367 -0.63956,-18.54733 -1.27913,-27.66111l0,-0.15989l43.81008,0c0,5.1165 -0.31978,9.91323 -0.47967,14.70995l-3.35771,0.47967c-0.95934,0 -1.91869,0.15989 -2.87803,0.15989l-7.0352,0.63957c-0.31978,0 -0.79946,0 -1.27913,0.15989c-0.31978,3.83738 0.95935,7.67476 1.11924,11.51214c-1.11924,0 -1.7588,0.63957 -3.19782,0.31978c-1.27913,-9.43356 -2.07858,-18.70722 -3.5176,-27.98089l-6.71541,0c-3.19782,4.47694 -6.55551,8.794 -10.07312,12.95116c3.5176,5.43628 8.47421,9.27367 12.79127,14.07039c-1.91869,0.15989 -3.67749,0.79945 -5.1165,0.31978c-1.59891,-0.47967 -3.67749,-3.99727 -4.79672,-5.27639c-1.7588,-2.07858 -3.35771,-3.99727 -4.79671,-5.27639c-0.63957,3.67749 0.95934,7.51487 0.63956,11.03247c-1.27913,0.1599 -3.03793,0.1599 -3.83738,0l0,-0.00001l-0.00002,-0.00001zm26.54188,-24.14351c0.47967,2.71815 0.47967,6.07584 0.95934,8.794c3.67749,-0.63956 7.99455,-0.63956 11.51215,-1.43902c-0.1599,-2.55825 0.15989,-5.59617 -0.31979,-7.67476c-3.03792,-0.31978 -7.67476,-0.15989 -11.51214,-0.15989c-0.31978,0 -0.31978,0.47967 -0.63956,0.47967zm-23.98363,-3.67749c0.15989,3.35771 0,7.0352 0.63957,9.91323c3.03792,-2.87803 4.79671,-7.03519 7.83465,-9.91323l-8.47422,0zm0.47968,53.40353c2.87803,-6.23573 4.79671,-13.11105 7.19509,-19.82646c1.91869,6.71541 3.35771,13.9105 5.43628,20.62593c0.79945,0.47967 3.3577,0.47967 4.47694,0.15989c-2.07858,-7.67476 -4.79671,-16.30886 -6.55551,-24.78308c-2.23848,0 -4.31706,0 -6.55552,0c-2.71815,7.67477 -5.43628,15.50941 -8.31433,23.02428l0,0.95934c1.27913,0.31979 3.03793,0 4.31706,-0.15989l-0.00001,0l0,-0.00001zm43.81008,2.39837c2.07858,8.15443 4.15716,16.14897 6.23573,24.14351l-4.15716,0c-0.63957,-2.23847 -1.11924,-4.79672 -1.43902,-7.35498c-1.91869,-0.15989 -4.63682,0.31978 -7.19509,0.15989c-0.95934,2.07858 -0.95934,4.95661 -1.91869,7.19509l-4.15716,0c2.23847,-8.15443 4.9566,-15.82919 7.03519,-23.98362c1.59891,-0.31978 3.99728,-0.63957 5.59618,-0.15989l0.00002,0zm-0.47967,14.39017c-0.47968,-3.5176 -1.11924,-7.0352 -2.07859,-10.23302c-0.47967,0 -0.79945,0 -1.27912,0c-0.79946,3.03793 -1.43902,6.39562 -2.07859,9.75334c1.59891,0.15989 4.15717,0.47968 5.43628,0.47968l0.00002,0zm32.29793,-70.19207l0,79.94541l0,0l0,-26.0622c-0.79945,0.31978 -2.55825,0.47967 -3.67749,0.15989c0,-4.31706 0.95935,-7.67476 0.95935,-12.15171c-3.35771,0.15989 -6.87531,0.31978 -10.39291,0.31978c-0.47967,3.83738 0.15989,8.63411 -0.31978,12.47149c-1.11924,-0.15989 -2.55826,0.15989 -3.19782,-0.15989c0,-7.67476 -0.31978,-16.78853 0.31978,-24.3034c0.95935,0.15989 1.91869,-0.47968 2.55826,-0.31979c2.23847,0.63957 0.15989,6.39563 0.47967,8.47422c2.87804,0.79946 7.19509,0.47967 10.71269,0.79946c0.15989,-2.39837 0.31978,-6.55552 0.15989,-8.95389c0.63956,-0.15989 1.59891,-0.15989 2.39836,-0.15989l0,-30.05948l-0.15989,0c-2.55825,9.59345 -5.27639,19.027 -8.15443,28.62046c-2.55826,0 -3.83738,0 -6.23574,0c-1.59891,-9.91324 -3.83738,-19.1869 -5.91595,-28.62046l-2.87804,0c1.59891,9.75334 3.83739,19.027 5.91596,28.30068c-0.79946,0.15989 -3.35771,0.47967 -3.83738,-0.1599c-1.59891,-2.23847 -1.43902,-6.07584 -2.23848,-9.11378c-2.55825,0.1599 -4.63682,-0.31978 -7.19509,-0.15989c-1.27912,2.55826 -1.7588,5.59617 -2.71814,8.31433c-1.11924,0.15989 -2.87804,0.79945 -4.47695,0.31978c2.55826,-9.27367 5.1165,-18.38744 7.83466,-27.50122l30.05947,0l0.00001,0l-0.00001,0zm-24.3034,15.5094c-0.79946,-4.31705 -1.43902,-8.79399 -1.91869,-13.11105c-0.15989,0 -0.47967,0 -0.63957,0c-1.5989,4.31706 -2.71814,8.95389 -3.83738,13.43084c2.55826,0.15989 3.99728,-0.47968 6.39563,-0.31979l0.00001,0zm17.2682,-3.83738c-2.55825,-0.15989 -3.99727,0.47968 -6.39562,0.31978c0.63956,4.31706 1.27913,8.794 1.91869,13.11106c0.15989,0 0.47967,0 0.63956,0c1.59891,-4.31706 2.71815,-8.794 3.83739,-13.43084l-0.00002,0zm2.55826,-11.67203l-11.67204,0c1.11924,2.23847 1.11924,5.43628 1.7588,8.15443c2.55826,-0.15989 4.63683,0.31978 7.19509,0.15989c1.27913,-2.39836 1.7588,-5.43628 2.71815,-8.31432z" stroke="null"/>
 </g>
</svg>
